<svg width="77" height="57" viewBox="0 0 77 57" fill="none" xmlns="http://www.w3.org/2000/svg">
<path fill-rule="evenodd" clip-rule="evenodd" d="M54.556 46H57V11.777H54.556V46Z" fill="#66BB6A"/>
<path fill-rule="evenodd" clip-rule="evenodd" d="M75.2617 6.05267H63.8437C59.0327 6.05267 55.1307 9.95267 55.1307 14.7657V18.1307H55.1977C55.5407 13.6327 59.2587 10.0777 63.8437 10.0777H75.1947C75.2117 9.85667 75.2617 9.64367 75.2617 9.41667V6.05267Z" fill="#66BB6A"/>
<path fill-rule="evenodd" clip-rule="evenodd" d="M75.2617 6.05267H63.8437C59.0327 6.05267 55.1307 9.95267 55.1307 14.7657V18.1307H55.1977C55.5407 13.6327 59.2587 10.0777 63.8437 10.0777H75.1947C75.2117 9.85667 75.2617 9.64367 75.2617 9.41667V6.05267Z" stroke="white" stroke-width="2" stroke-linecap="round" stroke-linejoin="round"/>
<path fill-rule="evenodd" clip-rule="evenodd" d="M55.1973 18.1309H66.5483C71.1343 18.1309 74.8503 14.5759 75.1943 10.0779H63.8433C59.2593 10.0779 55.5413 13.6329 55.1973 18.1309Z" fill="#66BB6A"/>
<path fill-rule="evenodd" clip-rule="evenodd" d="M55.1973 18.1309H66.5483C71.1343 18.1309 74.8503 14.5759 75.1943 10.0779H63.8433C59.2593 10.0779 55.5413 13.6329 55.1973 18.1309Z" stroke="white" stroke-width="2" stroke-linecap="round" stroke-linejoin="round"/>
<path fill-rule="evenodd" clip-rule="evenodd" d="M55.1309 12.0781H43.7139C38.9019 12.0781 34.9999 8.17712 34.9999 3.36512V0.00012207H35.0669C35.4099 4.49812 39.1279 8.05312 43.7139 8.05312H55.0639C55.0809 8.27412 55.1309 8.48712 55.1309 8.71412V12.0781Z" fill="#66BB6A"/>
<path fill-rule="evenodd" clip-rule="evenodd" d="M55.1309 12.0781H43.7139C38.9019 12.0781 34.9999 8.17712 34.9999 3.36512V0.00012207H35.0669C35.4099 4.49812 39.1279 8.05312 43.7139 8.05312H55.0639C55.0809 8.27412 55.1309 8.48712 55.1309 8.71412V12.0781Z" stroke="white" stroke-width="2" stroke-linecap="round" stroke-linejoin="round"/>
<path fill-rule="evenodd" clip-rule="evenodd" d="M35.0669 0H46.4179C51.0029 0 54.7199 3.555 55.0639 8.053H43.7129C39.1279 8.053 35.4099 4.498 35.0669 0Z" fill="#66BB6A"/>
<path fill-rule="evenodd" clip-rule="evenodd" d="M35.0669 0H46.4179C51.0029 0 54.7199 3.555 55.0639 8.053H43.7129C39.1279 8.053 35.4099 4.498 35.0669 0Z" stroke="white" stroke-width="2" stroke-linecap="round" stroke-linejoin="round"/>
<path fill-rule="evenodd" clip-rule="evenodd" d="M57.3633 35.3242C57.3633 32.4452 55.2193 30.0162 52.3633 29.6602L37.2063 27.7652L1.00031 56.0002H29.0003L37.2063 45.4022" fill="#66BB6A"/>
<path d="M57.3633 35.3242V35.3242C57.3633 32.4452 55.2193 30.0162 52.3633 29.6602L39.3723 28.0362C37.9863 27.8622 36.5873 28.2482 35.4853 29.1072L1.00031 56.0002" stroke="white" stroke-width="2" stroke-linecap="round" stroke-linejoin="round"/>
<path fill-rule="evenodd" clip-rule="evenodd" d="M66.9766 27.7656L62.8436 28.2566C62.3106 28.3206 61.7976 28.4956 61.3386 28.7736L56.5806 31.6476V37.9996H60.9996L66.9766 27.7656Z" fill="#66BB6A"/>
<path fill-rule="evenodd" clip-rule="evenodd" d="M66.9766 27.7656L62.8436 28.2566C62.3106 28.3206 61.7976 28.4956 61.3386 28.7736L56.5806 31.6476V37.9996H60.9996L66.9766 27.7656Z" stroke="white" stroke-width="2" stroke-linecap="round" stroke-linejoin="round"/>
<path fill-rule="evenodd" clip-rule="evenodd" d="M44.7651 35.3242H59.8831L68.5301 26.6762C69.3851 25.8222 70.6891 25.6102 71.7691 26.1502L75.0001 27.7652L59.8831 45.4022H37.2061L29.0001 56.0002" fill="#66BB6A"/>
<path d="M44.7651 35.3242H59.8831L68.5301 26.6762C69.3851 25.8222 70.6891 25.6102 71.7691 26.1502L75.0001 27.7652L59.8831 45.4022H37.2061L29.0001 56.0002" stroke="white" stroke-width="2" stroke-linecap="round" stroke-linejoin="round"/>
</svg>
