<svg width="123" height="36" viewBox="0 0 123 36" fill="none" xmlns="http://www.w3.org/2000/svg">
<path fill-rule="evenodd" clip-rule="evenodd" d="M45.9731 1.86758L46.6002 5.56527H64.6136L44.6249 31.3199L45.1555 34.9713H69.7218L69.2394 31.3199H49.6824L69.8641 5.56527L69.3817 1.86758H45.9731Z" fill="#13AA57"/>
<path fill-rule="evenodd" clip-rule="evenodd" d="M90.1682 29.2266C88.8996 30.8183 87.2066 31.6129 85.0866 31.6129C82.9353 31.6129 81.2495 30.8256 80.0291 29.251C78.8088 27.6788 78.1986 25.624 78.1986 23.0938C78.23 20.6929 78.8811 18.6966 80.1497 17.1049C81.4183 15.5156 83.1114 14.7186 85.2313 14.7186C87.3826 14.7186 89.0684 15.5083 90.2888 17.0805C91.5091 18.6551 92.1193 20.7075 92.1193 23.2376C92.0856 25.641 91.4368 27.6373 90.1682 29.2266M91.3741 12.286C89.6207 11.2476 87.5755 10.7284 85.2313 10.7284C82.8533 10.7284 80.7816 11.2476 79.0162 12.286C77.2508 13.3243 75.8857 14.7844 74.9234 16.6661C73.9587 18.5503 73.4788 20.7075 73.4788 23.1426C73.4788 25.6093 73.9418 27.7836 74.8752 29.6653C75.8061 31.5471 77.1471 33.0071 78.898 34.048C80.6465 35.0839 82.6941 35.6055 85.0383 35.6055C87.4139 35.6055 89.4929 35.0839 91.2752 34.048C93.0575 33.0071 94.4322 31.5471 95.3945 29.6653C96.3568 27.7836 96.8391 25.624 96.8391 23.1889C96.8391 20.7246 96.3664 18.5503 95.4186 16.6661C94.4708 14.7844 93.1226 13.3243 91.3741 12.286" fill="#13AA57"/>
<mask id="mask0" mask-type="alpha" maskUnits="userSpaceOnUse" x="102" y="11" width="21" height="25">
<path fill-rule="evenodd" clip-rule="evenodd" d="M102.186 11.3607H122.658V35.75H102.186V11.3607Z" fill="white"/>
</mask>
<g mask="url(#mask0)">
<path fill-rule="evenodd" clip-rule="evenodd" d="M118.034 11.3607V28.0112C116.78 29.113 115.514 30.0148 114.228 30.712C112.943 31.4115 111.754 31.7577 110.664 31.7577C109.219 31.7577 108.216 31.314 107.654 30.4195C107.092 29.5273 106.81 28.2208 106.81 26.5V11.3607H102.186V26.9387C102.186 29.6346 102.804 31.7747 104.041 33.364C105.276 34.9557 107.164 35.7503 109.699 35.7503C111.243 35.7503 112.801 35.3847 114.373 34.6558C115.946 33.9246 117.359 32.9935 118.613 31.8552L119.431 34.9727H122.658V11.3607H118.034Z" fill="#13AA57"/>
</g>
<mask id="mask1" mask-type="alpha" maskUnits="userSpaceOnUse" x="0" y="0" width="34" height="35">
<path fill-rule="evenodd" clip-rule="evenodd" d="M0 0.437988H33.7305V34.4184H0V0.437988Z" fill="white"/>
</mask>
<g mask="url(#mask1)">
<path fill-rule="evenodd" clip-rule="evenodd" d="M16.8649 0.437256C7.55069 0.437256 -0.000549316 8.06907 -0.000549316 17.4827C-0.000549316 25.8287 5.94204 32.7634 13.7803 34.2308C12.6299 31.4569 11.5205 27.981 10.9416 23.8763C10.5316 20.9756 10.4689 18.3529 10.563 16.1153C10.7776 17.3925 11.1515 18.9671 11.8219 20.6953C12.4876 22.4113 13.2666 23.8153 13.9636 24.8951C13.9636 22.7696 14.253 19.4595 15.852 15.8593C16.602 14.1701 17.4751 12.7881 18.2855 11.7034C17.6801 13.8313 17.1157 16.5784 16.9855 19.8032C16.8939 22.0091 17.0217 23.9835 17.2363 25.6581C17.943 25.056 18.8185 24.1834 19.6288 22.9866C20.7141 21.3803 21.2447 19.8446 21.5172 18.7868C21.5486 21.1316 21.3918 24.0396 20.7623 27.3131C20.2342 30.0456 19.4937 32.427 18.7292 34.4184C27.1656 33.48 33.7304 26.2577 33.7304 17.4827C33.7304 8.06907 26.1792 0.437256 16.8649 0.437256" fill="#13AA57"/>
</g>
</svg>
