<svg width="155" height="109" viewBox="0 0 155 109" fill="none" xmlns="http://www.w3.org/2000/svg">
<path fill-rule="evenodd" clip-rule="evenodd" d="M4.5 0C2.01472 0 0 2.01472 0 4.5V60.8445C0 63.3298 2.01471 65.3445 4.5 65.3445H39.1478L30.1516 71.4612C28.9194 72.299 28.1818 73.6925 28.1818 75.1825V103.506C28.1818 107.119 32.2244 109.259 35.212 107.227L68.4847 84.6045C69.7169 83.7667 70.4545 82.3732 70.4545 80.8832V65.3445V44.0585V4.5C70.4545 2.01472 68.4398 0 65.9546 0H4.5ZM84.5455 4.5C84.5455 2.01472 86.5602 0 89.0455 0H150.5C152.985 0 155 2.01472 155 4.5V44.0585V65.3445V80.8832C155 82.3732 154.262 83.7667 153.03 84.6045L119.757 107.227C116.77 109.259 112.727 107.119 112.727 103.506V75.1825C112.727 73.6925 113.465 72.299 114.697 71.4612L123.693 65.3445H89.0454C86.5602 65.3445 84.5455 63.3298 84.5455 60.8445V4.5Z" fill="#66BB6A" fill-opacity="0.248443"/>
</svg>
